<svg xmlns="http://www.w3.org/2000/svg" fill="currentColor" viewBox="0 0 120 120" stroke="currentColor">
<path stroke-linecap="round" stroke-linejoin="round" stroke-width="2" d="M70.2,14.3V3.9h-8v10.4h-6V3.9h-8v10.4H34.3v15.9H71v42.4c0,5.9-1.5,10.5-4.6,13.8c-1.7,1.7-3.6,3-5.8,3.7
	c-2.2,0.7-4.3,1.1-6.2,1.1c-3.1,0-5.9-0.3-8.3-0.9c-2.4-0.6-5.2-1.9-8.6-3.8L31.1,101c3.9,2.4,7.8,4,11.7,4.9
	c1.7,0.4,3.5,0.7,5.3,0.9v8.3h8v-7.9c1.1,0,2.4-0.1,3.8-0.2c0.7-0.1,1.4-0.2,2.2-0.3v8.4h8v-10.6c1.1-0.4,2.1-0.9,3.2-1.5
	c2.4-1.2,4.6-2.9,6.7-5c3.3-3.4,5.6-7.3,6.9-11.6c1.3-4.4,1.9-9,1.9-14V14.3H70.2z"/>
</svg>
