<?xml version="1.0" encoding="utf-8"?><svg xml:space="preserve" viewBox="0 0 100 100" y="0" x="0" xmlns="http://www.w3.org/2000/svg" id="Layer_1" version="1.1" width="47px" height="47px" xmlns:xlink="http://www.w3.org/1999/xlink" ><g class="ldl-scale"  ><path fill="currentColor" d="M50 92.5c-5.7 0-11.3-1.1-16.5-3.3-5.1-2.1-9.6-5.2-13.5-9.1-3.9-3.9-7-8.4-9.1-13.5C8.6 61.3 7.5 55.7 7.5 50c0-4.9 4-8.9 8.9-8.9s8.9 4 8.9 8.9c0 3.3.6 6.5 1.9 9.6 1.2 2.9 3 5.6 5.3 7.8 2.3 2.3 4.9 4 7.8 5.3 3 1.3 6.2 1.9 9.6 1.9s6.5-.6 9.6-1.9c2.9-1.2 5.6-3 7.8-5.3 2.3-2.3 4-4.9 5.3-7.8 1.3-3 1.9-6.2 1.9-9.6 0-3.3-.6-6.5-1.9-9.6-1.2-2.9-3-5.6-5.3-7.8-2.3-2.3-4.9-4-7.8-5.3-3-1.3-6.2-1.9-9.6-1.9-4.9 0-8.9-4-8.9-8.9s4-8.9 8.9-8.9c5.7 0 11.3 1.1 16.5 3.3C71.5 13 76 16.1 79.9 20c3.9 3.9 7 8.4 9.1 13.5 2.2 5.2 3.3 10.8 3.3 16.5S91.2 61.3 89 66.5c-2.1 5.1-5.2 9.6-9.1 13.5-3.9 3.9-8.4 7-13.5 9.1-5.1 2.3-10.7 3.4-16.4 3.4z"  ></path>
</svg>
